<?xml version="1.0" encoding="utf-8"?>
<!-- Generator: Adobe Illustrator 23.0.1, SVG Export Plug-In . SVG Version: 6.00 Build 0)  -->
<svg version="1.1" id="Layer_1" xmlns="http://www.w3.org/2000/svg" xmlns:xlink="http://www.w3.org/1999/xlink" x="0px" y="0px"
	 viewBox="0 0 64 80" style="enable-background:new 0 0 64 80;" xml:space="preserve">
<style type="text/css">
	.st0{fill:#FFFFFF;}
</style>
<g>
	<path class="st0" d="M54.7,37.3c1,1.5,3.2,1.1,4.7,1.2c1.7,0,3-1.4,3-3c0-0.2,0-0.5-0.1-0.7l-1.4-5c1.5-1.5,1.4-4-0.1-5.4
		c-0.7-0.6-1.6-1-2.5-1c-0.8-1.4-1.9-2.6-3-3.8l4.7-2.1c1.3-0.6,1.8-2.1,1.3-3.4c-0.3-0.6-0.7-1-1.3-1.3L36.6,2.3
		c-0.7-0.3-1.4-0.3-2.1,0L11.1,12.8c-1.3,0.6-1.8,2.1-1.3,3.4c0.3,0.6,0.7,1,1.3,1.3l10.6,4.7v6c-2.2,1.9-1.7,7.1,1.6,7.8
		c0.9,3.5,3.3,6.4,6.6,7.9v2c-3.8,0.2-7.4,1.5-10.4,3.8c0,0-4.6-4.6-4.6-4.6c-3.7-3.9-13,4.5-9,9l6.4,6.4c-1,3.2-0.5,10.3-0.6,13.6
		c0,2.1,1.7,3.8,3.8,3.8h40.5c2.1,0,3.8-1.7,3.8-3.8V65c0-10.3-8.1-18.8-18.3-19.3v-2c3.3-1.5,5.7-4.4,6.6-7.9
		c3.3-0.6,3.9-5.8,1.7-7.8v-6l3.3-1.5c1.2,1,2.2,2.2,3.1,3.5c0,0,0,0,0,0c0,0,0,0,0,0c-1.6,1.3-1.8,3.7-0.5,5.3
		c0.1,0.1,0.1,0.1,0.2,0.2l-1.4,5C54,35.6,54.1,36.5,54.7,37.3z M28.2,48.4c0.8-0.1,1.5-0.2,2.3-0.2l3.2,4.2l-3.3,2.5l-2.5-6.4
		C28,48.4,28.1,48.4,28.2,48.4z M32.4,46.4v-1.9c2.1,0.4,4.2,0.4,6.3,0v1.9l-3.2,4.1L32.4,46.4z M7.5,50.6c0.3-1,0.8-1.9,1.6-2.6
		c1.5-1.6,4.7-2.8,4.1-0.1c-0.7,2-2.2,3.5-4.2,4.2C7.7,52.5,7.1,52,7.5,50.6z M10,54.5c2.5-0.9,4.5-2.9,5.4-5.4l6,6l-5.4,5.4
		L10,54.5z M23.3,56.9l2.5,2.5l-5.4,5.4l-2.5-2.5L23.3,56.9z M15.3,75c-0.7,0-1.3-0.6-1.3-1.3c0.1-2.1-0.2-9.6,0.2-11.5L27.1,75
		L15.3,75z M31.3,74.5c-0.5,0.2-1,0.1-1.4-0.1l-7.8-7.7l5.4-5.4l7.8,7.7C36.3,70.9,33.3,74,31.3,74.5z M57,65v8.7
		c0,0.7-0.6,1.3-1.3,1.3H35.2c1.3-1.1,2.2-2.5,2.7-4.2c6.3-5.3,10.9-15.3,12.5-19.2C54.6,54.8,57,59.8,57,65z M48.2,50.2
		C47,53.3,43,62.4,37.6,67.8c-2.6-3-10-10-12.6-12.8c-1-2.1-1.7-3.8-2.1-4.7c0.8-0.5,1.7-0.8,2.6-1.1l2.6,6.7c0.5,1.3,2,1.9,3.3,1.4
		c0.2-0.1,0.4-0.2,0.6-0.3l3.6-2.7l3.6,2.7c1.1,0.8,2.7,0.6,3.5-0.5c0.1-0.2,0.2-0.4,0.3-0.6l2.6-6.7C46.5,49.4,47.4,49.8,48.2,50.2
		z M41.6,48.3c0.5,0.1,1,0.1,1.6,0.2l-2.5,6.4l-3.3-2.5l3.2-4.2C40.9,48.2,41.3,48.2,41.6,48.3z M48.2,32.1c0,0.7-0.6,1.3-1.3,1.3
		c-0.7-0.1-1.3,0.4-1.4,1C43.7,45,27.4,45,25.6,34.4c-0.1-0.7-0.7-1.1-1.4-1c-0.7,0-1.3-0.6-1.3-1.3c0-0.2,0-1.4,0-1.5
		c8,3.7,17.2,3.7,25.2,0C48.2,30.7,48.1,32,48.2,32.1z M24.2,28.4v-5.2l10.3,4.6c0.7,0.3,1.4,0.3,2.1,0l10.3-4.6v5.2
		C39.7,31.7,31.4,31.7,24.2,28.4z M53.1,17.7c-6.2-4.8-15.3-3.5-18.1-2.1c-0.6,0.3-0.9,1-0.7,1.7c0.3,0.6,1,0.9,1.6,0.7
		c1.5-0.9,9.3-2.4,14.4,1l-14.8,6.6L12.1,15.1L35.5,4.6L59,15.1C58.9,15.1,53.1,17.7,53.1,17.7z M59.4,26.5c0.3,0.6,0,1.4-0.7,1.6
		c-0.6,0.3-1.4,0-1.6-0.7c-0.1-0.3-0.1-0.6,0-0.9h0c0,0,0,0,0,0c0,0,0,0,0,0c0.3-0.6,1-0.9,1.7-0.6C59.1,26,59.3,26.2,59.4,26.5z
		 M57.9,30.8c0.2,0,0.5,0,0.7,0c0,0,1.2,4.6,1.2,4.6c0.1,0.2-0.1,0.5-0.3,0.5c-0.1,0-0.1,0-0.2,0h-2.4c-0.2,0-0.4-0.2-0.4-0.4
		c0-0.1,0-0.1,0-0.1C56.6,35.3,57.9,30.8,57.9,30.8z"/>
</g>
</svg>
