<?xml version="1.0" encoding="utf-8"?>
<!-- Generator: Adobe Illustrator 23.0.1, SVG Export Plug-In . SVG Version: 6.00 Build 0)  -->
<svg version="1.1" id="Layer_1" xmlns="http://www.w3.org/2000/svg" xmlns:xlink="http://www.w3.org/1999/xlink" x="0px" y="0px"
	 viewBox="0 0 200 250" style="enable-background:new 0 0 200 250;" xml:space="preserve">
<style type="text/css">
	.st0{fill:#FFFFFF;}
</style>
<g>
	<path class="st0" d="M116.3,75.2c3,0,5.4-2.4,5.4-5.4s-2.4-5.4-5.4-5.4c-3,0-5.4,2.4-5.4,5.4S113.3,75.2,116.3,75.2z"/>
	<path class="st0" d="M81.8,75.2c3,0,5.4-2.4,5.4-5.4s-2.4-5.4-5.4-5.4s-5.4,2.4-5.4,5.4c0,1.5,0.6,2.8,1.6,3.8
		C79,74.6,80.4,75.2,81.8,75.2z"/>
	<path class="st0" d="M86.5,95.9c-1.1,2.4-0.1,5.3,2.3,6.5c3.5,1.7,7.3,2.5,11.3,2.5c3.9,0,7.6-0.8,11.1-2.4c2.4-1.1,3.5-4,2.4-6.5
		c-0.8-1.7-2.5-2.8-4.4-2.8c-0.7,0-1.4,0.2-2,0.4c-4.4,2-9.8,2-14.1-0.1c-0.7-0.3-1.4-0.5-2.1-0.5C89,93.1,87.3,94.2,86.5,95.9z"/>
	<path class="st0" d="M139.5,112.7l-5.4-4.4c8.7-8.3,13.7-19.7,15-34c0-0.1,0-0.3,0-0.4l0-16.5c0-0.1,0-0.2,0-0.4l0-7.1
		c0-0.4,0.3-38.5-38.2-42.8c-0.2,0-0.3,0-0.5,0H85.6c-0.3,0-0.5,0-0.8,0.1c-0.3,0.1-34.5,6-34.9,42.7l0,22.9
		c0,0.2,1.2,21.3,15.4,35.9l-5.1,4.2c-41,8.2-41.7,38.3-41.7,40.9l0,34.5c0,2.7,2.2,4.9,4.9,4.9h153.1c2.7,0,4.9-2.2,4.9-4.9l0-34.3
		C181.5,151.9,181.7,121,139.5,112.7z M107.9,140.9l19.8-25.3l3.7,3l-12.6,29.1L107.9,140.9z M88.6,120.9c3.4,0.7,7.1,1.1,10.9,1.2
		c0.7,0,5.6-0.1,12.2-1.8l-11.8,15L88.6,120.9z M59.7,59.8l8.1-10.9c6.4,3.9,19.9,10.8,35,10.8c10.8,0,20.5-3.5,29-10.3l7.7,9.6
		l0,14.6c-3.6,38.3-38.4,38.7-39.9,38.7c-9.3-0.2-17.3-2.6-23.6-7.4c-0.1-0.1-0.2-0.1-0.3-0.2c-14.8-11.3-16-31.6-16-32.3V59.8z
		 M136.2,39.3c-0.9-1.1-2.1-1.7-3.5-1.8c-1.4-0.1-2.7,0.4-3.7,1.4c-7.5,7.5-16.4,11.2-26.5,11.2c-17.3,0-32.3-11.2-32.9-11.7
		c-0.8-0.6-1.9-1-2.9-1c-0.2,0-0.5,0-0.7,0c-1.3,0.2-2.5,0.9-3.2,1.9l-2.3,3.1C64.3,21.8,83,17.3,86.1,16.7h24.1
		c20.3,2.4,26.6,16.5,28.5,25.6L136.2,39.3z M68.4,118.7l3.7-3l19.8,25.3L81,147.8L68.4,118.7z M77.3,159.6c1.3,0.4,2.9,0.2,4-0.5
		l2.1-1.3l2.1,4.1l-5.2,21.4h-52l0-29.9c0-0.9-0.8-23,31.2-30.5l14.7,34C74.8,158.2,75.9,159.2,77.3,159.6z M93.8,156.7l-2.1-4.1
		l8.2-5.2l7.9,5l-2,4.3L93.8,156.7L93.8,156.7z M116.1,157.6l2.3,1.5c1.2,0.8,2.7,0.9,4,0.5c1.4-0.4,2.5-1.4,3-2.7l14.7-34
		c32.1,7.5,31.4,29.8,31.4,30.8v29.6h-51.1l-6.4-21.5L116.1,157.6z M94.4,166.4h11l5,16.8H90.3L94.4,166.4z"/>
</g>
</svg>
