<?xml version="1.0" encoding="utf-8"?>
<!-- Generator: Adobe Illustrator 23.0.1, SVG Export Plug-In . SVG Version: 6.00 Build 0)  -->
<svg version="1.1" id="Layer_1" xmlns="http://www.w3.org/2000/svg" xmlns:xlink="http://www.w3.org/1999/xlink" x="0px" y="0px"
	 viewBox="0 0 64 80" style="enable-background:new 0 0 64 80;" xml:space="preserve">
<style type="text/css">
	.st0{fill:#FFFFFF;}
</style>
<g>
	<path class="st0" d="M11,68.5L15,70v1.5c0,1.9,1.5,3.4,3.4,3.4h27.3c1.9,0,3.4-1.5,3.4-3.4V70l3.9-1.5c3.1-1.2,5.2-4.2,5.2-7.4
		v-5.8c0-1.5-0.3-3-0.9-4.3l-4.1-8.9c-1.3-2.9-3.9-5-7-5.7l-9.5-2.2v-2.4c2.7-1.3,4.7-3.9,5.4-6.9h0.3c1.9,0,3.4-1.5,3.4-3.4
		c0-1.1-0.5-2.1-1.4-2.7c0.1-0.2,0.2-0.4,0.2-0.7v-4.4c0-2.5-0.7-5-2.1-7.1c-1.7-2.6-4.9-3.9-7.9-3.3l-1.9-1
		c-0.2-0.1-0.3-0.1-0.5-0.1h-2c-6.4,0-11.6,5.2-11.6,11.6v3.2c0,0.6,0.5,1.1,1.1,1.1h2.3c-1.9,0-3.4,1.5-3.4,3.4s1.5,3.4,3.4,3.4H22
		c0.7,3,2.7,5.5,5.4,6.9v3.4c0,2.5,2,4.5,4.5,4.5c2,0,3.7-1.3,4.3-3.2l9.3,2.1C48,39.2,50,40.8,51,43l4.1,8.9c0.5,1,0.7,2.2,0.7,3.3
		V61c0,2.4-1.5,4.5-3.7,5.3L49,67.5V57.3l2.9-1.9c0.5-0.3,0.7-1.1,0.3-1.6c-0.3-0.5-1.1-0.7-1.6-0.3L49,54.6V44.2
		c0-1.9-1.5-3.4-3.4-3.4H18.4c-1.9,0-3.4,1.5-3.4,3.4v10.4l-1.6-1.1c-0.5-0.3-1.2-0.2-1.6,0.3s-0.2,1.2,0.3,1.6l2.9,1.9v10.3
		l-3.1-1.2c-2.2-0.8-3.7-3-3.7-5.3v-5.8c0-1.1,0.3-2.3,0.7-3.3L13,43c1-2.2,3.1-3.9,5.4-4.4l6.3-1.5c0.6-0.1,1-0.8,0.9-1.4
		c-0.1-0.6-0.8-1-1.4-0.9l-6.3,1.5c-3.1,0.7-5.7,2.8-7,5.7L6.8,51c-0.6,1.3-0.9,2.8-0.9,4.3V61C5.9,64.3,7.9,67.3,11,68.5z
		 M42.2,22.6v-2.3c0.6,0,1.1,0.5,1.1,1.1C43.4,22.1,42.9,22.6,42.2,22.6z M20.6,15.8v-2c0-5.1,4.2-9.3,9.3-9.3h1.8l2,1
		c0.2,0.1,0.5,0.2,0.8,0.1c2.3-0.6,4.6,0.4,5.9,2.3c1.1,1.7,1.8,3.7,1.8,5.8v3.3h-2.6l-0.8-2c-0.4-1-1.3-1.8-2.4-2
		c-0.6-0.1-1.2-0.1-1.8,0.1c-0.6-0.8-1.4-1.3-2.4-1.4c-1-0.1-2,0.3-2.7,1c-1.9,2-4.4,3-7.8,3H20.6z M20.6,21.5
		c0-0.6,0.5-1.1,1.1-1.1v2.3C21.1,22.6,20.6,22.1,20.6,21.5z M24,22.6v-4.7c2.9-0.4,5.3-1.6,7.2-3.6c0.2-0.2,0.5-0.4,0.8-0.3
		c0.2,0,0.5,0.1,0.7,0.4l0.6,0.8c0.2,0.3,0.5,0.5,0.8,0.5c0.3,0,0.7-0.1,0.9-0.3c0.2-0.2,0.6-0.3,0.9-0.3c0.3,0.1,0.6,0.3,0.7,0.6
		l1.1,2.7c0.2,0.4,0.6,0.7,1.1,0.7H40v3.4c0,4.4-3.6,8-8,8S24,27,24,22.6z M32,37.4c-1.3,0-2.3-1-2.3-2.3v-2.5
		c0.7,0.2,1.5,0.3,2.3,0.3c0.8,0,1.5-0.1,2.3-0.3v2.5C34.3,36.3,33.3,37.4,32,37.4z M18.4,43h27.3c0.6,0,1.1,0.5,1.1,1.1v22.7H24
		c-0.6,0-1.1,0.5-1.1,1.1s0.5,1.1,1.1,1.1h22.7v2.3c0,0.6-0.5,1.1-1.1,1.1H18.4c-0.6,0-1.1-0.5-1.1-1.1v-2.3h2.3
		c0.6,0,1.1-0.5,1.1-1.1s-0.5-1.1-1.1-1.1h-2.3V44.2C17.2,43.6,17.7,43,18.4,43z"/>
	<path class="st0" d="M36.5,24.9c0-0.6-0.5-1.1-1.1-1.1s-1.1,0.5-1.1,1.1c0,0.5-2.2,1.1-4.5,1.1c-0.6,0-1.1,0.5-1.1,1.1
		c0,0.6,0.5,1.1,1.1,1.1C30.9,28.3,36.5,28.1,36.5,24.9z"/>
	<path class="st0" d="M32,59c2.5,0,4.5-2,4.5-4.5c0-0.6-0.5-1.1-1.1-1.1s-1.1,0.5-1.1,1.1c0,1.3-1,2.3-2.3,2.3s-2.3-1-2.3-2.3
		s1-2.3,2.3-2.3c0.6,0,1.1-0.5,1.1-1.1s-0.5-1.1-1.1-1.1c-2.5,0-4.5,2-4.5,4.5S29.5,59,32,59z"/>
	<path class="st0" d="M34.3,11.2c0.3,0,0.6-0.1,0.8-0.3l1.1-1.1c0.4-0.4,0.4-1.2,0-1.6c-0.4-0.4-1.2-0.4-1.6,0l-1.1,1.1
		c-0.4,0.4-0.4,1.2,0,1.6C33.7,11.1,34,11.2,34.3,11.2z"/>
</g>
<g>
	<ellipse class="st0" cx="27.5" cy="20.9" rx="1.1" ry="1.7"/>
	<ellipse class="st0" cx="36.5" cy="20.9" rx="1.1" ry="1.7"/>
</g>
</svg>
